<svg viewBox="0 0 342.8515585177538 342.8515585177538" height="342.8515585177538" width="342.8515585177538"><g><svg></svg></g><g><svg viewBox="0 0 342.8515585177538 342.8515585177538" height="342.8515585177538" width="342.8515585177538"><g><path d="M0 171.426c0-94.676 76.75-171.426 171.426-171.426 94.676 0 171.426 76.75 171.426 171.426 0 94.676-76.75 171.426-171.426 171.426-94.676 0-171.426-76.75-171.426-171.426zM171.426 338.481c92.262 0 167.055-74.793 167.055-167.055 0-92.262-74.793-167.055-167.055-167.055-92.262 0-167.055 74.793-167.055 167.055 0 92.262 74.793 167.055 167.055 167.055z" data-fill-palette-color="tertiary" fill="#d2d6dc" stroke="transparent"></path><ellipse rx="164.56874808852183" ry="164.56874808852183" cx="171.4257792588769" cy="171.4257792588769" fill="#d2d6dc" stroke="transparent" stroke-width="0" fill-opacity="1" data-fill-palette-color="tertiary"></ellipse></g><g transform="matrix(1,0,0,1,64.84655864529836,107.97698795148825)"><svg viewBox="0 0 213.15844122715708 126.89758261477729" height="126.89758261477729" width="213.15844122715708"><g><svg viewBox="0 0 213.15844122715708 126.89758261477729" height="126.89758261477729" width="213.15844122715708"><g><svg viewBox="0 0 213.15844122715708 126.89758261477729" height="126.89758261477729" width="213.15844122715708"><g transform="matrix(1,0,0,1,0,78.42779693446194)"><svg viewBox="0 0 213.15844122715708 48.46978568031535" height="48.46978568031535" width="213.15844122715708"><g id="textblocktransform"><svg viewBox="0 0 213.15844122715708 48.46978568031535" height="48.46978568031535" width="213.15844122715708" id="textblock"><g><svg viewBox="0 0 213.15844122715708 48.46978568031535" height="48.46978568031535" width="213.15844122715708"><g transform="matrix(1,0,0,1,0,0)"><svg width="213.15844122715708" viewBox="2.549999952316284 -35 156.989990234375 35.70000076293945" height="48.46978568031535" data-palette-color="#636365"><path d="M32.1-10.15L35.45-7.35Q33-3.75 29.23-1.55 25.45 0.65 20.3 0.65L20.3 0.65Q15.4 0.65 11.33-1.63 7.25-3.9 4.9-7.95 2.55-12 2.55-17.1L2.55-17.1Q2.55-22.35 4.85-26.43 7.15-30.5 11-32.75 14.85-35 19.3-35L19.3-35Q22.9-35 25.68-33.7 28.45-32.4 30.35-30.05L30.35-30.05 30.4-34.3 35.05-34.3 35.05-23.15 31.75-22.85Q28.15-30.85 20.05-30.85L20.05-30.85Q16.8-30.85 14.03-29.18 11.25-27.5 9.58-24.38 7.9-21.25 7.9-17.15L7.9-17.15Q7.9-13.25 9.55-10.18 11.2-7.1 14.03-5.35 16.85-3.6 20.3-3.6L20.3-3.6Q24.35-3.6 27.18-5.35 30-7.1 32.1-10.15L32.1-10.15ZM76.05-6.25L78.6-2.9Q75.45 0.7 71.3 0.7L71.3 0.7Q66.95 0.7 63.97-2.45 61-5.6 59.15-12.15L59.15-12.15 58.35-14.65 51.2-14.65 51.2-4.15 57.5-4.15 57.5 0 39.6 0 39.6-4.1 46.05-4.1 46.05-30.15 39.6-30.15 39.6-34.3 59.5-34.3Q65.35-34.3 68.75-31.65 72.15-29 72.15-24.45L72.15-24.45Q72.15-20.7 69.72-18.13 67.3-15.55 62.9-14.9L62.9-14.9 63.8-12.45Q65.35-8.05 67.25-6.05 69.15-4.05 71.55-4.05L71.55-4.05Q73.05-4.05 74.1-4.65 75.15-5.25 76.05-6.25L76.05-6.25ZM51.2-30.15L51.2-18.55 59.65-18.55Q62.85-18.55 64.95-20.13 67.05-21.7 67.05-24.45L67.05-24.45Q67.05-27.1 64.97-28.63 62.9-30.15 59.65-30.15L59.65-30.15 51.2-30.15ZM120.95-34.3L120.95-30.15 114.5-30.15 114.5-13.25Q114.5-9.3 112.55-6.13 110.6-2.95 107.1-1.15 103.6 0.65 99.1 0.65L99.1 0.65Q94.5 0.65 91-1.15 87.5-2.95 85.6-6.1 83.7-9.25 83.7-13.25L83.7-13.25 83.7-30.15 77.25-30.15 77.25-34.3 94.95-34.3 94.95-30.15 88.9-30.15 88.85-13.4Q88.85-10.6 90.15-8.38 91.45-6.15 93.77-4.9 96.1-3.65 99.1-3.65L99.1-3.65Q102.05-3.65 104.4-4.9 106.75-6.15 108.05-8.4 109.35-10.65 109.35-13.45L109.35-13.45 109.3-30.15 103.2-30.15 103.2-34.3 120.95-34.3ZM139.84-34.3Q145.19-34.3 149.69-32.38 154.19-30.45 156.87-26.58 159.54-22.7 159.54-17.15L159.54-17.15Q159.54-11.6 156.87-7.73 154.19-3.85 149.69-1.93 145.19 0 139.84 0L139.84 0 123.04 0 123.04-4.15 129.49-4.15 129.49-30.15 123.04-30.15 123.04-34.3 139.84-34.3ZM139.34-4.15Q145.74-4.15 149.94-7.33 154.14-10.5 154.14-17.15L154.14-17.15Q154.14-23.85 149.94-27 145.74-30.15 139.34-30.15L139.34-30.15 134.64-30.15 134.64-4.15 139.34-4.15Z" opacity="1" transform="matrix(1,0,0,1,0,0)" fill="#636365" class="wordmark-text-0" data-fill-palette-color="quaternary" id="text-0"></path></svg></g></svg></g></svg></g></svg></g><g transform="matrix(1,0,0,1,58.74515761197301,0)"><svg viewBox="0 0 95.66812600321106 66.98524381019581" height="66.98524381019581" width="95.66812600321106"><g><svg xmlns="http://www.w3.org/2000/svg" viewBox="43.33208084106445 75.01642608642578 310.8379211425781 217.64358520507812" x="0" y="0" height="66.98524381019581" width="95.66812600321106" class="icon-icon-0" data-fill-palette-color="quaternary" id="icon-0"><g data-name="Immersive experience " fill="#636365" data-fill-palette-color="quaternary"><path d="M289.33 118.67H106.67a5 5 0 0 0-5 5V165a5 5 0 0 0 5 5H289.33a5 5 0 0 0 5-5V123.67A5 5 0 0 0 289.33 118.67ZM119.05 160h-7.39V128.67h7.39Zm165.28 0H124.05V128.67H284.33Z" fill="#636365" data-fill-palette-color="quaternary"></path><path d="M264.33 226.33V185a5 5 0 0 0-5-5H76.67a5 5 0 0 0-5 5v41.33a5 5 0 0 0 5 5H259.33A5 5 0 0 0 264.33 226.33Zm-175.28-5H81.67V190h7.39Zm165.28 0H94.05V190H254.33Z" fill="#636365" data-fill-palette-color="quaternary"></path><path d="M289.33 241.33H106.67a5 5 0 0 0-5 5v41.33a5 5 0 0 0 5 5H289.33a5 5 0 0 0 5-5V246.33A5 5 0 0 0 289.33 241.33ZM119.05 282.67h-7.39V251.33h7.39Zm165.28 0H124.05V251.33H284.33Z" fill="#636365" data-fill-palette-color="quaternary"></path><path d="M100.51 98.34l-4.08 4.08a5 5 0 1 0 7.07 7.07l13-13a5 5 0 0 0 0-7.07l-13-13a5 5 0 0 0-7.07 7.07l4.66 4.66a63.11 63.11 0 0 0-45.92 99.68 5 5 0 1 0 8.12-5.84 53.11 53.11 0 0 1 37.22-83.74Z" fill="#636365" data-fill-palette-color="quaternary"></path><path d="M137.22 147h91a3 3 0 0 0 0-6h-91a3 3 0 0 0 0 6Z" fill="#636365" data-fill-palette-color="quaternary"></path><path d="M137.22 270h71a3 3 0 0 0 0-6h-71a3 3 0 1 0 0 6Z" fill="#636365" data-fill-palette-color="quaternary"></path><path d="M106.67 210.37h61a3 3 0 1 0 0-6h-61a3 3 0 0 0 0 6Z" fill="#636365" data-fill-palette-color="quaternary"></path><path d="M339.91 257.59a2 2 0 0 0-2.83 0l-6.59 6.59-6.59-6.59a2 2 0 0 0-2.83 2.83l6.59 6.59-6.59 6.59a2 2 0 1 0 2.83 2.83l6.59-6.59 6.59 6.59a2 2 0 0 0 2.83-2.83L333.33 267l6.59-6.59A2 2 0 0 0 339.91 257.59Z" fill="#636365" data-fill-palette-color="quaternary"></path><path d="M330.5 243.33A23.67 23.67 0 1 0 354.17 267 23.69 23.69 0 0 0 330.5 243.33Zm0 42.33A18.67 18.67 0 1 1 349.17 267 18.69 18.69 0 0 1 330.5 285.67Z" fill="#636365" data-fill-palette-color="quaternary"></path></g></svg></g></svg></g><g></g></svg></g></svg></g></svg></g></svg></g><defs></defs></svg>